<?xml version="1.0" encoding="iso-8859-1"?>
<!-- Generator: Adobe Illustrator 19.0.0, SVG Export Plug-In . SVG Version: 6.00 Build 0)  -->
<svg version="1.1" id="Layer_1" xmlns="http://www.w3.org/2000/svg" xmlns:xlink="http://www.w3.org/1999/xlink" x="0px" y="0px"
	 viewBox="0 0 512 512" style="enable-background:new 0 0 512 512;" xml:space="preserve">
<path style="fill:#A5A5A5;" d="M320.674,51.2v43.116H8.084V51.2c0-11.906,9.651-21.558,21.558-21.558h269.474
	C311.022,29.642,320.674,39.294,320.674,51.2z"/>
<path style="fill:#FFE6AE;" d="M320.674,83.537v194.021c0,11.906-9.651,21.558-21.558,21.558H29.642
	c-11.906,0-21.558-9.651-21.558-21.558V83.537H51.2V18.863c0-5.953,4.826-10.779,10.779-10.779h64.674
	c5.953,0,10.779,4.826,10.779,10.779v64.674H320.674z"/>
<path style="fill:#FFD880;" d="M137.432,18.863v64.674H51.2V18.863c0-5.953,4.826-10.779,10.779-10.779h64.674
	C132.606,8.084,137.432,12.91,137.432,18.863z"/>
<path style="fill:#FCC159;" d="M110.484,51.2H78.147c-2.976,0-5.389-2.413-5.389-5.389V35.032c0-2.976,2.413-5.389,5.389-5.389
	h32.337c2.976,0,5.389,2.413,5.389,5.389v10.779C115.874,48.787,113.46,51.2,110.484,51.2z"/>
<path style="fill:#FFD880;" d="M288.337,142.821V153.6c0,2.976-2.413,5.389-5.389,5.389h-97.011c-2.976,0-5.389-2.413-5.389-5.389
	v-10.779c0-2.976,2.413-5.389,5.389-5.389h97.011C285.923,137.432,288.337,139.845,288.337,142.821z M282.947,180.547h-97.011
	c-2.976,0-5.389,2.413-5.389,5.389v10.779c0,2.976,2.413,5.389,5.389,5.389h97.011c2.976,0,5.389-2.413,5.389-5.389v-10.779
	C288.337,182.961,285.923,180.547,282.947,180.547z M282.947,223.663h-97.011c-2.976,0-5.389,2.413-5.389,5.389v10.779
	c0,2.976,2.413,5.389,5.389,5.389h97.011c2.976,0,5.389-2.413,5.389-5.389v-10.779C288.337,226.077,285.923,223.663,282.947,223.663
	z"/>
<path style="fill:#FF9D00;" d="M150.795,254.67l-17.128-102.766c-3.22-19.316-19.769-33.336-39.352-33.336
	s-36.132,14.019-39.352,33.336L37.836,254.67c-0.734,4.403,2.241,8.569,6.645,9.303c4.406,0.737,8.569-2.241,9.303-6.645
	l6.06-36.361h68.942l6.06,36.361c0.659,3.954,4.084,6.757,7.965,6.756c0.441,0,0.889-0.037,1.339-0.111
	C148.554,263.239,151.529,259.074,150.795,254.67z M62.539,204.799l8.373-50.237c1.914-11.487,11.757-19.826,23.403-19.826
	s21.489,8.338,23.403,19.826l8.373,50.237H62.539z"/>
<path style="fill:#A5A5A5;" d="M503.916,256v43.116H191.326V256c0-11.906,9.651-21.558,21.558-21.558h269.474
	C494.264,234.442,503.916,244.094,503.916,256z"/>
<path style="fill:#E9F2F4;" d="M503.916,288.337v194.021c0,11.906-9.651,21.558-21.558,21.558H212.884
	c-11.906,0-21.558-9.651-21.558-21.558V288.337h43.116v-64.674c0-5.953,4.826-10.779,10.779-10.779h64.674
	c5.953,0,10.779,4.826,10.779,10.779v64.674H503.916z"/>
<path style="fill:#C3E4ED;" d="M320.674,223.663v64.674h-86.232v-64.674c0-5.953,4.826-10.779,10.779-10.779h64.674
	C315.848,212.884,320.674,217.71,320.674,223.663z"/>
<path style="fill:#B2D1D8;" d="M293.726,256h-32.337c-2.976,0-5.389-2.413-5.389-5.389v-10.779c0-2.976,2.413-5.389,5.389-5.389
	h32.337c2.976,0,5.389,2.413,5.389,5.389v10.779C299.116,253.587,296.702,256,293.726,256z"/>
<path style="fill:#CFDFE2;" d="M471.579,347.621V358.4c0,2.976-2.413,5.389-5.389,5.389h-97.011c-2.976,0-5.389-2.413-5.389-5.389
	v-10.779c0-2.976,2.413-5.389,5.389-5.389h97.011C469.165,342.232,471.579,344.645,471.579,347.621z M466.189,385.347h-97.011
	c-2.976,0-5.389,2.413-5.389,5.389v10.779c0,2.976,2.413,5.389,5.389,5.389h97.011c2.976,0,5.389-2.413,5.389-5.389v-10.779
	C471.579,387.761,469.165,385.347,466.189,385.347z M466.189,428.463h-97.011c-2.976,0-5.389,2.413-5.389,5.389v10.779
	c0,2.976,2.413,5.389,5.389,5.389h97.011c2.976,0,5.389-2.413,5.389-5.389v-10.779C471.579,430.877,469.165,428.463,466.189,428.463
	z"/>
<path style="fill:#84A7B7;" d="M311.631,392.237c7.25-7.309,11.737-17.364,11.737-28.448c0-22.289-18.132-40.421-40.421-40.421
	h-53.895c-4.465,0-8.084,3.62-8.084,8.084v64.674V460.8c0,4.465,3.62,8.084,8.084,8.084h64.674
	c22.289,0,40.421-18.132,40.421-40.421C334.147,412.602,324.959,398.852,311.631,392.237z M237.137,339.537h45.811
	c13.373,0,24.253,10.879,24.253,24.253s-10.879,24.253-24.253,24.253h-45.811V339.537z M293.726,452.716h-56.589v-48.505h45.811
	h10.779c13.373,0,24.253,10.879,24.253,24.253S307.1,452.716,293.726,452.716z"/>
<path style="fill:#4C4C4C;" d="M215.579,57.128v-1.078c0-4.465,3.62-8.084,8.084-8.084c4.465,0,8.084,3.62,8.084,8.084v1.078
	c0,4.465-3.62,8.084-8.084,8.084C219.199,65.213,215.579,61.593,215.579,57.128z M256,65.213c4.465,0,8.084-3.62,8.084-8.084v-1.078
	c0-4.465-3.62-8.084-8.084-8.084c-4.465,0-8.084,3.62-8.084,8.084v1.078C247.916,61.593,251.535,65.213,256,65.213z M288.337,65.213
	c4.465,0,8.084-3.62,8.084-8.084v-1.078c0-4.465-3.62-8.084-8.084-8.084s-8.084,3.62-8.084,8.084v1.078
	C280.253,61.593,283.872,65.213,288.337,65.213z M406.905,270.013c4.465,0,8.084-3.62,8.084-8.084v-1.078
	c0-4.465-3.62-8.084-8.084-8.084s-8.084,3.62-8.084,8.084v1.078C398.821,266.393,402.441,270.013,406.905,270.013z M439.242,270.013
	c4.465,0,8.084-3.62,8.084-8.084v-1.078c0-4.465-3.62-8.084-8.084-8.084c-4.465,0-8.084,3.62-8.084,8.084v1.078
	C431.158,266.393,434.777,270.013,439.242,270.013z M471.579,270.013c4.465,0,8.084-3.62,8.084-8.084v-1.078
	c0-4.465-3.62-8.084-8.084-8.084s-8.084,3.62-8.084,8.084v1.078C463.495,266.393,467.114,270.013,471.579,270.013z M512,256v32.337
	v194.021C512,498.703,498.703,512,482.358,512H212.884c-16.345,0-29.642-13.297-29.642-29.642V307.2h-153.6
	C13.297,307.2,0,293.903,0,277.558V83.537V51.2c0-16.345,13.297-29.642,29.642-29.642h13.474v-2.695C43.116,8.463,51.578,0,61.979,0
	h64.674c10.401,0,18.863,8.463,18.863,18.863v2.695h153.6c16.345,0,29.642,13.297,29.642,29.642v32.337v140.126v2.695h153.6
	C498.703,226.358,512,239.655,512,256z M482.358,242.526h-153.6v37.726h167.074V256C495.832,248.57,489.788,242.526,482.358,242.526
	z M226.358,280.253v-37.726h-13.474c-7.43,0-13.474,6.044-13.474,13.474v24.253H226.358z M242.526,280.253h70.063v-45.811v-10.779
	c0-1.485-1.209-2.695-2.695-2.695h-64.674c-1.485,0-2.695,1.209-2.695,2.695V280.253z M145.516,37.726v37.726h167.074V51.2
	c0-7.43-6.044-13.474-13.474-13.474H145.516z M59.284,75.453h70.063V18.863c0-1.485-1.209-2.695-2.695-2.695H61.979
	c-1.485,0-2.695,1.209-2.695,2.695V75.453z M16.168,51.2v24.253h26.947V37.726H29.642C22.212,37.726,16.168,43.77,16.168,51.2z
	 M183.242,291.032v-2.695V256c0-16.345,13.297-29.642,29.642-29.642h13.474v-2.695c0-10.401,8.463-18.863,18.863-18.863h64.674
	c0.917,0,1.812,0.088,2.695,0.216V91.621H16.168v185.937c0,7.43,6.044,13.474,13.474,13.474H183.242z M495.832,296.421H320.674
	h-86.232h-35.032v2.684c0,0.003,0,0.007,0,0.011s0,0.006,0,0.011v183.231c0,7.43,6.044,13.474,13.474,13.474h269.474
	c7.43,0,13.474-6.044,13.474-13.474V296.421z"/>
<g>
</g>
<g>
</g>
<g>
</g>
<g>
</g>
<g>
</g>
<g>
</g>
<g>
</g>
<g>
</g>
<g>
</g>
<g>
</g>
<g>
</g>
<g>
</g>
<g>
</g>
<g>
</g>
<g>
</g>
</svg>
