<?xml version="1.0" encoding="iso-8859-1"?>
<!-- Generator: Adobe Illustrator 19.0.0, SVG Export Plug-In . SVG Version: 6.00 Build 0)  -->
<svg version="1.1" id="Layer_1" xmlns="http://www.w3.org/2000/svg" xmlns:xlink="http://www.w3.org/1999/xlink" x="0px" y="0px"
	 viewBox="0 0 511.999 511.999" style="enable-background:new 0 0 511.999 511.999;" xml:space="preserve">
<path style="fill:#EFEFEF;" d="M501.333,236.666c0,0.125,0,0.251-0.001,0.377c-0.111,22.696-18.751,40.956-41.447,40.956H53.532
	c-19.425,0-36.321-13.476-40.469-32.453c-1.564-7.16-2.396-14.376-2.396-20.88c0-41.24,33.427-74.667,74.667-74.667
	c4.64,0,9.187,0.427,13.6,1.24c2.72-28.387,26.627-50.573,55.733-50.573c6.667,0,13.053,1.16,18.973,3.307
	c17.933-46.4,62.973-79.307,115.693-79.307c68.48,0,124,55.52,124,124c0,4.973-0.293,9.88-0.867,14.693
	c4.6-0.893,9.347-1.36,14.2-1.36C467.907,161.999,501.333,195.426,501.333,236.666z"/>
<circle style="fill:#E8594F;" cx="208" cy="460.666" r="26.667"/>
<g>
	<circle style="fill:#61C7D2;" cx="304" cy="460.666" r="26.667"/>
	<circle style="fill:#61C7D2;" cx="65.333" cy="364.666" r="26.667"/>
</g>
<circle style="fill:#E8594F;" cx="446.667" cy="364.666" r="26.667"/>
<g>
	<path style="fill:#231F20;" d="M85.333,181.999c-23.527,0-42.667,19.14-42.667,42.667c0,3.832,0.481,8.248,1.391,12.771
		c1.019,5.065,5.471,8.564,10.445,8.564c0.697,0,1.405-0.068,2.115-0.212c5.776-1.163,9.515-6.785,8.353-12.561
		c-0.625-3.115-0.971-6.155-0.971-8.561c0-11.763,9.571-21.333,21.333-21.333c5.891,0,10.667-4.776,10.667-10.667
		S91.224,181.999,85.333,181.999z"/>
	<path style="fill:#231F20;" d="M426.667,193.999c-5.891,0-10.667,4.776-10.667,10.667s4.776,10.667,10.667,10.667
		c11.48,0,20.843,8.977,21.315,20.44c0.236,5.736,4.961,10.227,10.649,10.227c0.148,0,0.297-0.003,0.447-0.009
		c5.887-0.243,10.461-5.211,10.219-11.097C468.352,211.962,449.627,193.999,426.667,193.999z"/>
	<path style="fill:#231F20;" d="M289.333,56.666c-37.744,0-72.243,23.647-85.845,58.843c-2.124,5.496,0.609,11.671,6.104,13.795
		c5.5,2.124,11.672-0.609,13.795-6.104c10.449-27.036,36.951-45.2,65.947-45.2c38.965,0,70.667,31.701,70.667,70.667
		c0,5.891,4.776,10.667,10.667,10.667c5.891,0,10.667-4.776,10.667-10.667C381.333,97.937,340.063,56.666,289.333,56.666z"/>
	<path style="fill:#231F20;" d="M426.667,151.333c-0.897,0-1.796,0.015-2.695,0.043c0.019-0.903,0.028-1.807,0.028-2.709
		c0-74.255-60.412-134.667-134.667-134.667c-27.72,0-54.345,8.36-76.997,24.173c-19.467,13.591-34.825,31.803-44.839,53.06
		c-4.197-0.82-8.487-1.233-12.831-1.233c-30.828,0-56.864,20.627-64.441,49.473c-1.629-0.093-3.261-0.14-4.892-0.14
		C38.28,139.333,0,177.613,0,224.666c0,7.236,0.915,15.244,2.643,23.157c5.171,23.667,26.573,40.843,50.889,40.843h69.135v65.333
		h-21.561c-4.601-15.404-18.892-26.667-35.772-26.667C44.748,327.333,28,344.081,28,364.666s16.748,37.333,37.333,37.333
		c16.88,0,31.171-11.263,35.772-26.667h32.228c5.891,0,10.667-4.776,10.667-10.667v-76h53.333v136.228
		c-15.404,4.601-26.667,18.892-26.667,35.772c0,20.585,16.748,37.333,37.333,37.333s37.333-16.748,37.333-37.333
		c0-16.88-11.263-31.171-26.667-35.772V288.666h74.667v136.228c-15.404,4.601-26.667,18.892-26.667,35.772
		c0,20.585,16.748,37.333,37.333,37.333s37.333-16.748,37.333-37.333c0-16.88-11.263-31.171-26.667-35.772V288.666H368v76
		c0,5.891,4.776,10.667,10.667,10.667h32.228c4.601,15.404,18.892,26.667,35.772,26.667c20.585,0,37.333-16.748,37.333-37.333
		s-16.748-37.333-37.333-37.333c-16.88,0-31.171,11.263-35.772,26.667h-21.561v-65.333h70.552c28.597,0,51.975-23.135,52.113-51.571
		v-0.429C512,189.613,473.72,151.333,426.667,151.333z M65.333,380.666c-8.823,0-16-7.177-16-16c0-8.823,7.177-16,16-16
		s16,7.177,16,16C81.333,373.489,74.156,380.666,65.333,380.666z M446.667,348.666c8.823,0,16,7.177,16,16c0,8.823-7.177,16-16,16
		c-8.823,0-16-7.177-16-16C430.667,355.843,437.844,348.666,446.667,348.666z M224,460.666c0,8.823-7.177,16-16,16
		c-8.823,0-16-7.177-16-16c0-8.823,7.177-16,16-16C216.823,444.666,224,451.843,224,460.666z M320,460.666c0,8.823-7.177,16-16,16
		c-8.823,0-16-7.177-16-16c0-8.823,7.177-16,16-16C312.823,444.666,320,451.843,320,460.666z M490.667,236.991
		c-0.081,16.731-13.889,30.341-30.78,30.341H53.532c-14.364,0-27-10.12-30.048-24.064c-1.407-6.441-2.151-12.873-2.151-18.603
		c0-35.289,28.711-64,64-64c3.915,0,7.839,0.359,11.667,1.063c2.939,0.541,5.973-0.175,8.36-1.975
		c2.387-1.801,3.908-4.521,4.193-7.497c2.233-23.331,21.628-40.924,45.113-40.924c5.295,0,10.455,0.897,15.337,2.668
		c5.459,1.977,11.495-0.769,13.585-6.183c16.757-43.356,59.252-72.485,105.744-72.485c62.492,0,113.333,50.841,113.333,113.333
		c0,4.5-0.267,9.019-0.792,13.432c-0.403,3.384,0.835,6.756,3.331,9.075c2.496,2.32,5.948,3.307,9.295,2.657
		c3.979-0.772,8.072-1.164,12.167-1.164c35.289,0,64,28.711,64,64V236.991z"/>
</g>
<g>
</g>
<g>
</g>
<g>
</g>
<g>
</g>
<g>
</g>
<g>
</g>
<g>
</g>
<g>
</g>
<g>
</g>
<g>
</g>
<g>
</g>
<g>
</g>
<g>
</g>
<g>
</g>
<g>
</g>
</svg>
