<?xml version="1.0" encoding="iso-8859-1"?>
<!-- Generator: Adobe Illustrator 18.0.0, SVG Export Plug-In . SVG Version: 6.00 Build 0)  -->
<!DOCTYPE svg PUBLIC "-//W3C//DTD SVG 1.1//EN" "http://www.w3.org/Graphics/SVG/1.1/DTD/svg11.dtd">
<svg version="1.1" id="Capa_1" xmlns="http://www.w3.org/2000/svg" xmlns:xlink="http://www.w3.org/1999/xlink" x="0px" y="0px"
	 viewBox="0 0 460 460" style="enable-background:new 0 0 460 460;" xml:space="preserve">
<g id="XMLID_1306_">
	<g id="XMLID_11_">
		<path id="XMLID_3053_" style="fill:#fafafa;" d="M400.003,297.788c-0.053,0-0.105-0.001-0.159-0.002
			c-4.301-0.086-7.717-3.642-7.631-7.942c1.026-51.296-9.327-80.925-20.019-106.878c-1.638-3.977,0.257-8.529,4.234-10.167
			c3.978-1.637,8.529,0.257,10.167,4.234c13.809,33.517,22.17,64.132,21.19,113.122
			C407.701,294.403,404.231,297.788,400.003,297.788z"/>
	</g>
	<g id="XMLID_7_">
		<path id="XMLID_3052_" style="fill:#fafafa;" d="M60.008,297.788c-0.17,0-0.34-0.006-0.512-0.017
			c-4.292-0.279-7.545-3.984-7.267-8.276c4.248-65.429,23.937-120.593,56.94-159.53C140.735,92.723,183.647,72.212,230,72.212
			c46.095,0,90.786,19.102,122.615,52.408c2.971,3.11,2.86,8.039-0.25,11.011c-3.11,2.971-8.039,2.859-11.011-0.25
			C312.45,105.135,271.863,87.788,230,87.788c-89.162,0-154.356,81.466-162.228,202.717
			C67.504,294.625,64.079,297.788,60.008,297.788z"/>
	</g>
	<g id="XMLID_12_">
		<path id="XMLID_3051_" style="fill:#fafafa;" d="M364.999,297.788c-4.282,0-7.764-3.46-7.787-7.747
			c-0.298-56.992-13.398-99.582-38.937-126.586c-21.154-22.369-50.316-33.71-86.674-33.71c-32.361,0-62.663,14.993-85.323,42.216
			c-24.724,29.703-38.034,70.546-38.492,118.115c-0.041,4.275-3.52,7.713-7.786,7.713c-0.025,0-0.051,0-0.077-0.001
			c-4.301-0.041-7.754-3.561-7.712-7.862c0.492-51.199,15.049-95.436,42.095-127.929c25.672-30.842,60.225-47.828,97.294-47.828
			c40.234,0,74.119,13.342,97.99,38.584c28.344,29.97,42.877,76.133,43.196,137.207c0.022,4.301-3.446,7.806-7.747,7.828
			C365.027,297.788,365.013,297.788,364.999,297.788z"/>
	</g>
	<g id="XMLID_13_">
		<path id="XMLID_3050_" style="fill:#fafafa;" d="M139.993,297.788c-4.115,0-7.554-3.225-7.771-7.382
			c-0.145-2.779-3.102-68.508,36.332-107.664c20.452-20.308,48.339-29.565,82.906-27.516c4.293,0.255,7.567,3.942,7.313,8.236
			c-0.255,4.293-3.918,7.563-8.235,7.313c-29.944-1.772-53.837,5.969-71.009,23.02c-34.545,34.302-31.785,95.189-31.753,95.8
			c0.225,4.295-3.076,7.959-7.371,8.183C140.268,297.784,140.13,297.788,139.993,297.788z"/>
	</g>
	<g id="XMLID_14_">
		<path id="XMLID_3049_" style="fill:#fafafa;" d="M330.009,297.789c-0.359,0-0.722-0.025-1.088-0.076
			c-4.26-0.595-7.23-4.531-6.635-8.791c5.039-36.051-1.045-65.79-18.084-88.391c-12.703-16.85-27.157-23.323-27.301-23.387
			c-3.926-1.723-5.737-6.303-4.031-10.237c1.706-3.933,6.256-5.755,10.197-4.066c0.719,0.308,17.792,7.778,32.981,27.537
			c13.795,17.946,28.753,49.985,21.663,100.699C337.169,294.972,333.832,297.789,330.009,297.789z"/>
	</g>
	<g id="XMLID_15_">
		<path id="XMLID_3048_" style="fill:#fafafa;" d="M200.007,297.789c-2.722,0-5.365-1.43-6.795-3.971
			c-2.109-3.748-0.779-8.497,2.97-10.605c6.764-3.805,8.635-30.618,6.083-52.303c-0.035-0.302-0.053-0.606-0.053-0.91
			c0-20.836,16.952-37.788,37.788-37.788c20.836,0,37.788,16.952,37.788,37.788c0,4.301-3.487,7.788-7.788,7.788
			c-4.301,0-7.788-3.487-7.788-7.788c0-12.248-9.964-22.212-22.212-22.212c-12.113,0-21.993,9.746-22.208,21.809
			c0.282,2.59,1.457,14.402,0.991,27.308c-0.778,21.611-5.674,34.656-14.965,39.882C202.611,297.467,201.3,297.789,200.007,297.789z
			"/>
	</g>
	<g id="XMLID_16_">
		<path id="XMLID_3047_" style="fill:#fafafa;" d="M170.007,297.789c-2.646,0-5.225-1.348-6.686-3.782
			c-2.136-3.559-1.097-8.139,2.294-10.444c3.527-4.383,6.596-29.211,6.596-53.564c0-4.301,3.487-7.788,7.788-7.788
			s7.788,3.487,7.788,7.788c0,0.565-0.015,14.007-1.28,28.431c-2.509,28.599-7.727,35.383-12.501,38.247
			C172.753,297.43,171.371,297.789,170.007,297.789z"/>
	</g>
	<g id="XMLID_17_">
		<path id="XMLID_3046_" style="fill:#fafafa;" d="M270,297.788c-4.301,0-7.788-3.487-7.788-7.788v-30
			c0-4.301,3.487-7.788,7.788-7.788c4.301,0,7.788,3.487,7.788,7.788v30C277.788,294.301,274.301,297.788,270,297.788z"/>
	</g>
	<g id="XMLID_18_">
		<path id="XMLID_3045_" style="fill:#fafafa;" d="M301.009,297.789c-0.448,0-0.901-0.039-1.358-0.119
			c-4.236-0.745-7.066-4.783-6.322-9.019c5.013-28.511-0.886-56.744-0.946-57.025c-0.898-4.206,1.784-8.344,5.99-9.242
			c4.21-0.897,8.344,1.785,9.242,5.99c0.271,1.272,6.586,31.511,1.054,62.975C308.005,295.129,304.718,297.789,301.009,297.789z"/>
	</g>
	<g id="XMLID_19_">
		<path id="XMLID_3044_" style="fill:#fafafa;" d="M240,297.788c-4.301,0-7.788-3.487-7.788-7.788v-52
			c0-4.301,3.487-7.788,7.788-7.788s7.788,3.487,7.788,7.788v52C247.788,294.301,244.301,297.788,240,297.788z"/>
	</g>
	<g id="XMLID_917_">
		<polygon id="XMLID_2279_" style="fill:#86C867;" points="30,90 30,30 90,30 90,0 0,0 0,90 		"/>
	</g>
	<g id="XMLID_918_">
		<polygon id="XMLID_2278_" style="fill:#86C867;" points="370,30 430,30 430,90 460,90 460,0 370,0 		"/>
	</g>
	<g id="XMLID_920_">
		<polygon id="XMLID_2277_" style="fill:#86C867;" points="430,370 430,430 370,430 370,460 460,460 460,370 		"/>
	</g>
	<g id="XMLID_919_">
		<polygon id="XMLID_2276_" style="fill:#86C867;" points="90,430 30,430 30,370 0,370 0,460 90,460 		"/>
	</g>
	<g id="XMLID_20_">
		<rect id="XMLID_2275_" x="0" y="290" style="fill:#86C867;" width="460" height="30"/>
	</g>
</g>
<g>
</g>
<g>
</g>
<g>
</g>
<g>
</g>
<g>
</g>
<g>
</g>
<g>
</g>
<g>
</g>
<g>
</g>
<g>
</g>
<g>
</g>
<g>
</g>
<g>
</g>
<g>
</g>
<g>
</g>
</svg>
