<?xml version="1.0" encoding="iso-8859-1"?>
<!-- Generator: Adobe Illustrator 19.1.0, SVG Export Plug-In . SVG Version: 6.00 Build 0)  -->
<svg version="1.1" id="Capa_1" xmlns="http://www.w3.org/2000/svg" xmlns:xlink="http://www.w3.org/1999/xlink" x="0px" y="0px"
	 viewBox="0 0 512 512" style="enable-background:new 0 0 512 512;" xml:space="preserve">
<g>
	<g>
		<path style="fill:#FFFFFF;" d="M488,16H24C10.766,16,0,26.766,0,40v432c0,13.234,10.766,24,24,24h464c13.234,0,24-10.766,24-24V40
			C512,26.766,501.234,16,488,16z"/>
	</g>
	<g>
		<path style="fill:#B9BBC1;" d="M488,16H24C10.766,16,0,26.766,0,40v432c0,13.234,10.766,24,24,24h464c13.234,0,24-10.766,24-24V40
			C512,26.766,501.234,16,488,16z M496,472c0,4.418-3.582,8-8,8H24c-4.418,0-8-3.582-8-8V88c0-4.418,3.582-8,8-8h464
			c4.418,0,8,3.582,8,8V472z"/>
	</g>
	<g>
		<g>
			<path style="fill:#FF4F19;" d="M32,56c-2.164,0-4.164-0.883-5.68-2.32C24.875,52.156,24,50.078,24,48s0.875-4.164,2.32-5.68
				c2.961-2.961,8.398-2.961,11.359,0C39.117,43.836,40,45.922,40,48s-0.883,4.156-2.32,5.68C36.156,55.117,34.078,56,32,56z"/>
		</g>
	</g>
	<g>
		<g>
			<path style="fill:#FFD200;" d="M56,56c-2.078,0-4.164-0.883-5.68-2.32C48.875,52.156,48,50.156,48,48
				c0-2.078,0.875-4.164,2.32-5.68c2.961-2.961,8.398-2.961,11.359,0C63.117,43.836,64,45.922,64,48s-0.883,4.156-2.32,5.68
				C60.156,55.117,58.078,56,56,56z"/>
		</g>
	</g>
	<g>
		<g>
			<path style="fill:#00E68C;" d="M80,56c-2.078,0-4.164-0.883-5.68-2.32C72.875,52.156,72,50.078,72,48
				c0-2.164,0.875-4.242,2.32-5.68c3.039-2.961,8.32-2.961,11.359,0C87.117,43.758,88,45.836,88,48c0,2.078-0.883,4.156-2.32,5.68
				C84.156,55.117,82.078,56,80,56z"/>
		</g>
	</g>
	<g>
		<g>
			<path style="fill:#5C546A;" d="M168,416H56c-4.422,0-8-3.578-8-8c0-4.422,3.578-8,8-8h112c4.422,0,8,3.578,8,8
				C176,412.422,172.422,416,168,416z"/>
		</g>
	</g>
	<g>
		<g>
			<path style="fill:#5C546A;" d="M312,416H200c-4.422,0-8-3.578-8-8c0-4.422,3.578-8,8-8h112c4.422,0,8,3.578,8,8
				C320,412.422,316.422,416,312,416z"/>
		</g>
	</g>
	<g>
		<g>
			<path style="fill:#5C546A;" d="M456,416H344c-4.422,0-8-3.578-8-8c0-4.422,3.578-8,8-8h112c4.422,0,8,3.578,8,8
				C464,412.422,460.422,416,456,416z"/>
		</g>
	</g>
	<g>
		<g>
			<path style="fill:#B9BBC1;" d="M400,448h-56c-4.422,0-8-3.578-8-8s3.578-8,8-8h56c4.422,0,8,3.578,8,8S404.422,448,400,448z"/>
		</g>
	</g>
	<g>
		<g>
			<path style="fill:#B9BBC1;" d="M256,448h-56c-4.422,0-8-3.578-8-8s3.578-8,8-8h56c4.422,0,8,3.578,8,8S260.422,448,256,448z"/>
		</g>
	</g>
	<g>
		<g>
			<path style="fill:#B9BBC1;" d="M112,448H56c-4.422,0-8-3.578-8-8s3.578-8,8-8h56c4.422,0,8,3.578,8,8S116.422,448,112,448z"/>
		</g>
	</g>
	<g>
		<g>
			<path style="fill:#FF4F19;" d="M336,128h-72c-4.422,0-8-3.578-8-8c0-4.422,3.578-8,8-8h72c4.422,0,8,3.578,8,8
				C344,124.422,340.422,128,336,128z"/>
		</g>
	</g>
	<g>
		<g>
			<path style="fill:#E9001E;" d="M456,160H264c-4.422,0-8-3.578-8-8s3.578-8,8-8h192c4.422,0,8,3.578,8,8S460.422,160,456,160z"/>
		</g>
	</g>
	<g>
		<g>
			<path style="fill:#B9BBC1;" d="M456,208H304c-4.422,0-8-3.578-8-8c0-4.422,3.578-8,8-8h152c4.422,0,8,3.578,8,8
				C464,204.422,460.422,208,456,208z"/>
		</g>
	</g>
	<g>
		<g>
			<path style="fill:#B9BBC1;" d="M456,240H304c-4.422,0-8-3.578-8-8c0-4.422,3.578-8,8-8h152c4.422,0,8,3.578,8,8
				C464,236.422,460.422,240,456,240z"/>
		</g>
	</g>
	<g>
		<g>
			<path style="fill:#B9BBC1;" d="M456,272H304c-4.422,0-8-3.578-8-8s3.578-8,8-8h152c4.422,0,8,3.578,8,8S460.422,272,456,272z"/>
		</g>
	</g>
	<g>
		<g>
			<path style="fill:#FFD200;" d="M272,208h-8c-4.422,0-8-3.578-8-8c0-4.422,3.578-8,8-8h8c4.422,0,8,3.578,8,8
				C280,204.422,276.422,208,272,208z"/>
		</g>
	</g>
	<g>
		<g>
			<path style="fill:#FFD200;" d="M272,240h-8c-4.422,0-8-3.578-8-8c0-4.422,3.578-8,8-8h8c4.422,0,8,3.578,8,8
				C280,236.422,276.422,240,272,240z"/>
		</g>
	</g>
	<g>
		<g>
			<path style="fill:#FFD200;" d="M272,272h-8c-4.422,0-8-3.578-8-8s3.578-8,8-8h8c4.422,0,8,3.578,8,8S276.422,272,272,272z"/>
		</g>
	</g>
	<g>
		<g>
			<g>
				<path style="fill:#8B8996;" d="M184,264h-72c-4.422,0-8-3.578-8-8s3.578-8,8-8h72c4.422,0,8,3.578,8,8S188.422,264,184,264z"/>
			</g>
		</g>
		<g>
			<g>
				<path style="fill:#8B8996;" d="M103.992,264c-1.398,0-2.82-0.367-4.109-1.141c-3.789-2.273-5.016-7.188-2.742-10.977l24-40
					c2.273-3.781,7.18-5.023,10.977-2.742c3.789,2.273,5.016,7.188,2.742,10.977l-24,40C109.359,262.617,106.711,264,103.992,264z"
					/>
			</g>
		</g>
		<g>
			<circle style="fill:#5C546A;" cx="191.999" cy="256" r="16"/>
		</g>
		<g>
			<circle style="fill:#5C546A;" cx="103.999" cy="256" r="16"/>
		</g>
		<g>
			<g>
				<path style="fill:#B9BBC1;" d="M184,224h-48.648c-12.438,0-23.844-7.297-29.055-18.594L66.871,128H56c-4.422,0-8-3.578-8-8
					c0-4.422,3.578-8,8-8h10.883c6.227,0,12.283,4.465,12.283,4.465L84.82,128H208c4.422,0,8,3.578,8,8v56
					C216,209.648,201.648,224,184,224z"/>
			</g>
		</g>
		<g>
			<path style="fill:#8B8996;" d="M72,128H56c-4.418,0-8-3.582-8-8v0c0-4.418,3.582-8,8-8h16c4.418,0,8,3.582,8,8v0
				C80,124.418,76.418,128,72,128z"/>
		</g>
	</g>
	<g>
		<path style="fill:#00E68C;" d="M168,304H56c-4.418,0-8,3.582-8,8v64c0,4.418,3.582,8,8,8h112c4.418,0,8-3.582,8-8v-64
			C176,307.582,172.418,304,168,304z"/>
	</g>
	<g>
		<path style="fill:#FF4F19;" d="M312,304H200c-4.418,0-8,3.582-8,8v64c0,4.418,3.582,8,8,8h112c4.418,0,8-3.582,8-8v-64
			C320,307.582,316.418,304,312,304z"/>
	</g>
	<g>
		<path style="fill:#00ABFF;" d="M456,304H344c-4.418,0-8,3.582-8,8v64c0,4.418,3.582,8,8,8h112c4.418,0,8-3.582,8-8v-64
			C464,307.582,460.418,304,456,304z"/>
	</g>
</g>
<g>
</g>
<g>
</g>
<g>
</g>
<g>
</g>
<g>
</g>
<g>
</g>
<g>
</g>
<g>
</g>
<g>
</g>
<g>
</g>
<g>
</g>
<g>
</g>
<g>
</g>
<g>
</g>
<g>
</g>
</svg>
