<?xml version="1.0" encoding="iso-8859-1"?>
<!-- Generator: Adobe Illustrator 19.0.0, SVG Export Plug-In . SVG Version: 6.00 Build 0)  -->
<svg version="1.1" id="Layer_1" xmlns="http://www.w3.org/2000/svg" xmlns:xlink="http://www.w3.org/1999/xlink" x="0px" y="0px"
	 viewBox="0 0 498.264 498.264" style="enable-background:new 0 0 498.264 498.264;" xml:space="preserve">
<g>
	<path style="fill:#2488FF;" d="M249.132,358.264c-6.949,0-13.659,1.032-20,2.927c-28.881,8.628-50,35.424-50,67.073
		c0,38.598,31.402,70,70,70V358.264z"/>
	<path style="fill:#005ECE;" d="M249.132,498.264c38.598,0,70-31.402,70-70c0-31.649-21.119-58.445-50-67.073
		c-6.341-1.895-13.051-2.927-20-2.927V498.264z"/>
	<path style="fill:#9BC9FF;" d="M409.132,80.264h-80v80h20v59.391l-80,13.333V80.263l40.459,0.175L249.066,0l-60.132,79.916
		l40.198,0.174v192.898l-80-13.333v-64.772c11.944-6.927,20-19.846,20-34.619c0-22.056-17.944-40-40-40s-40,17.944-40,40
		c0,14.773,8.056,27.692,20,34.619v98.657l120,20v47.651c6.341-1.895,13.051-2.927,20-2.927s13.659,1.032,20,2.927V273.54l120-20
		v-93.276h20V80.264z"/>
</g>
<g>
</g>
<g>
</g>
<g>
</g>
<g>
</g>
<g>
</g>
<g>
</g>
<g>
</g>
<g>
</g>
<g>
</g>
<g>
</g>
<g>
</g>
<g>
</g>
<g>
</g>
<g>
</g>
<g>
</g>
</svg>
